<?xml version="1.0" standalone="no"?>
<!DOCTYPE svg PUBLIC "-//W3C//DTD SVG 20010904//EN"
 "http://www.w3.org/TR/2001/REC-SVG-20010904/DTD/svg10.dtd">
<svg version="1.0" xmlns="http://www.w3.org/2000/svg"
 width="512.000000pt" height="512.000000pt" viewBox="0 0 512.000000 512.000000"
 preserveAspectRatio="xMidYMid meet">

<g transform="translate(0.000000,512.000000) scale(0.100000,-0.100000)"
fill="#000000" stroke="none">
<path d="M880 4275 c-397 -79 -723 -376 -834 -759 -38 -128 -50 -241 -43 -401
33 -757 421 -1455 1042 -1874 292 -197 582 -315 944 -383 154 -29 689 -37 871
-14 449 59 867 237 1215 519 97 78 274 256 351 352 278 348 464 792 514 1230
5 50 10 235 10 411 l0 322 27 17 c44 30 84 77 112 135 37 78 37 191 0 270 -31
66 -95 131 -158 162 -56 27 -181 36 -265 18 -195 -40 -375 -208 -430 -400 -9
-30 -41 -188 -71 -350 -44 -236 -61 -307 -85 -357 -70 -143 -234 -224 -386
-193 -77 16 -126 42 -185 97 -81 75 -93 113 -159 472 -62 343 -64 347 -137
411 -257 226 -1068 221 -1316 -9 -62 -57 -66 -70 -121 -370 -61 -329 -75 -370
-162 -461 -225 -236 -605 -176 -746 118 -26 55 -33 82 -36 153 -4 71 -1 92 16
125 38 74 104 114 187 114 61 0 109 -21 165 -74 62 -58 101 -77 170 -83 156
-14 280 103 280 263 0 244 -183 475 -426 539 -71 18 -252 19 -344 0z m282
-156 c174 -36 305 -184 316 -355 4 -68 3 -74 -21 -98 -43 -43 -86 -36 -160 27
-92 78 -152 101 -262 102 -82 0 -96 -3 -156 -32 -40 -20 -85 -53 -113 -83 -44
-47 -51 -51 -119 -61 -129 -20 -290 -80 -405 -151 -18 -11 -35 -18 -38 -16 -6
7 29 105 61 168 111 220 297 381 531 459 135 46 270 60 366 40z m3698 -11
c115 -58 123 -203 17 -282 -24 -18 -46 -22 -143 -24 l-114 -4 0 -84 0 -84 85
0 85 0 0 -247 c0 -360 -22 -552 -91 -792 -122 -425 -402 -843 -746 -1113 l-60
-47 -53 132 c-222 562 -590 995 -1136 1337 l-143 90 -143 -89 c-317 -197 -539
-392 -748 -656 -163 -206 -324 -493 -415 -743 l-48 -132 -19 27 c-37 54 -106
199 -131 276 -45 133 -61 238 -60 397 0 252 65 468 200 673 l45 67 65 0 c227
0 457 158 548 375 16 39 30 71 31 73 1 1 25 -7 54 -18 289 -114 751 -133 1093
-45 53 14 120 34 147 45 38 15 52 17 54 7 2 -6 9 -32 16 -57 18 -69 67 -154
124 -215 162 -175 433 -217 641 -100 105 58 195 162 238 273 10 23 44 188 78
365 39 209 69 340 84 375 77 170 313 286 445 220z m-2105 -159 c159 -20 340
-84 369 -131 34 -56 -138 -138 -348 -167 -99 -14 -333 -14 -432 0 -210 29
-382 111 -348 167 28 45 214 113 359 131 102 12 297 13 400 0z m-652 -418 l37
-13 0 -79 c0 -43 -4 -79 -8 -79 -16 0 -118 32 -165 52 -43 19 -47 24 -43 47 3
14 10 52 16 83 l11 56 57 -27 c31 -16 74 -34 95 -40z m1077 12 c6 -32 13 -70
16 -84 4 -23 0 -28 -43 -47 -47 -20 -149 -52 -165 -52 -4 0 -8 35 -8 78 l0 78
73 28 c39 16 81 35 92 42 11 8 20 14 22 14 1 0 7 -26 13 -57z m-737 -73 l27 0
0 -80 0 -80 -27 0 c-16 0 -52 3 -80 6 l-53 7 0 80 0 80 53 -7 c28 -3 64 -6 80
-6z m367 -69 l0 -78 -52 -7 c-29 -3 -65 -6 -80 -6 l-28 0 0 79 0 80 48 4 c26
2 62 4 80 5 l32 2 0 -79z m-2150 0 c0 -27 2 -56 5 -63 4 -9 -5 -19 -22 -27
-78 -35 -238 -155 -344 -258 l-116 -113 -7 77 c-13 157 -10 175 32 215 50 49
170 124 245 156 53 21 176 60 200 61 4 1 7 -21 7 -48z m106 -321 l31 -47 -50
-59 c-162 -194 -274 -434 -315 -678 l-18 -106 -48 107 c-49 111 -119 309 -131
375 -6 33 -3 44 31 90 100 135 215 245 359 340 80 52 91 57 100 42 6 -9 24
-38 41 -64z m290 -234 c1 -1 -21 -39 -47 -86 -97 -167 -158 -362 -179 -575
-20 -197 6 -387 87 -624 9 -26 -173 158 -253 255 l-74 91 -7 94 c-19 290 88
612 282 849 l55 68 68 -36 c37 -19 68 -36 68 -36z m1653 -150 c172 -115 275
-199 416 -341 126 -126 255 -288 350 -440 106 -167 275 -544 261 -580 -4 -12
-109 -75 -146 -89 -12 -5 -25 23 -60 121 -159 449 -461 849 -857 1134 l-113
81 -112 -81 c-422 -303 -740 -742 -889 -1223 -17 -56 -33 -105 -34 -106 -2 -2
-42 14 -89 36 l-85 40 15 54 c62 209 192 483 322 678 149 222 306 396 509 562
110 89 354 250 371 243 8 -3 71 -43 141 -89z m-230 -688 l1 -188 -236 0 -235
0 28 38 c94 127 264 307 383 406 l45 37 7 -53 c3 -29 6 -137 7 -240z m345 142
c100 -97 190 -198 259 -292 l28 -38 -230 0 -231 0 0 241 0 240 33 -22 c17 -13
81 -71 141 -129z m-344 -830 l0 -330 -52 0 c-91 0 -319 20 -413 36 -143 24
-325 75 -325 90 0 47 112 342 177 467 l35 67 289 0 289 0 0 -330z m794 218
c56 -119 96 -220 126 -318 l18 -59 -82 -29 c-212 -77 -473 -131 -633 -132
l-53 0 0 325 0 325 285 0 285 0 54 -112z"/>
<path d="M4324 2786 c-56 -47 -20 -146 52 -146 34 0 84 51 84 85 0 34 -50 85
-84 85 -14 0 -37 -11 -52 -24z"/>
<path d="M4093 2470 c-48 -19 -58 -95 -18 -135 28 -29 54 -31 94 -10 31 15 41
33 41 70 0 37 -10 55 -41 70 -32 17 -44 18 -76 5z"/>
<path d="M3845 2139 c-32 -18 -45 -40 -45 -76 0 -57 64 -98 116 -74 49 22 61
106 20 140 -20 17 -69 22 -91 10z"/>
</g>
</svg>
